<mxfile host="Electron" modified="2024-03-07T15:49:54.456Z" agent="Mozilla/5.0 (Windows NT 10.0; Win64; x64) AppleWebKit/537.36 (KHTML, like Gecko) draw.io/23.1.5 Chrome/120.0.6099.109 Electron/28.1.0 Safari/537.36" etag="USOuBsGkPD4iQ8q424mi" version="23.1.5" type="device">
  <diagram name="Page-1" id="13e1069c-82ec-6db2-03f1-153e76fe0fe0">
    <mxGraphModel dx="1803" dy="1040" grid="1" gridSize="10" guides="1" tooltips="1" connect="1" arrows="1" fold="1" page="1" pageScale="1" pageWidth="1100" pageHeight="850" background="none" math="0" shadow="0">
      <root>
        <mxCell id="0" />
        <mxCell id="1" parent="0" />
        <mxCell id="zkXxXNobY6UrV_OO1nqk-1" value="QuickTools软件" style="shape=umlLifeline;perimeter=lifelinePerimeter;whiteSpace=wrap;html=1;container=1;collapsible=0;recursiveResize=0;outlineConnect=0;rounded=1;shadow=0;comic=0;labelBackgroundColor=none;strokeWidth=1;fontFamily=Verdana;fontSize=12;align=center;" parent="1" vertex="1">
          <mxGeometry x="146" y="84" width="100" height="730" as="geometry" />
        </mxCell>
        <mxCell id="5pYDzcxZIdraRvupaK1v-10" value="渲染界面" style="html=1;verticalAlign=bottom;endArrow=open;dashed=1;endSize=8;labelBackgroundColor=none;fontFamily=Verdana;fontSize=12;edgeStyle=elbowEdgeStyle;elbow=vertical;" parent="zkXxXNobY6UrV_OO1nqk-1" edge="1">
          <mxGeometry x="-0.5482" relative="1" as="geometry">
            <mxPoint x="-76" y="261" as="targetPoint" />
            <Array as="points" />
            <mxPoint x="194" y="261" as="sourcePoint" />
            <mxPoint as="offset" />
          </mxGeometry>
        </mxCell>
        <mxCell id="5pYDzcxZIdraRvupaK1v-15" value="渲染结果" style="html=1;verticalAlign=bottom;endArrow=open;dashed=1;endSize=8;labelBackgroundColor=none;fontFamily=Verdana;fontSize=12;edgeStyle=elbowEdgeStyle;elbow=vertical;" parent="zkXxXNobY6UrV_OO1nqk-1" edge="1">
          <mxGeometry x="-0.5482" relative="1" as="geometry">
            <mxPoint x="-76" y="602" as="targetPoint" />
            <Array as="points" />
            <mxPoint x="194" y="602" as="sourcePoint" />
            <mxPoint as="offset" />
          </mxGeometry>
        </mxCell>
        <mxCell id="0RdmLxTJzotYCwADJwB2-8" value="渲染参数" style="html=1;verticalAlign=bottom;endArrow=open;dashed=1;endSize=8;labelBackgroundColor=none;fontFamily=Verdana;fontSize=12;edgeStyle=elbowEdgeStyle;elbow=vertical;" edge="1" parent="zkXxXNobY6UrV_OO1nqk-1">
          <mxGeometry x="-0.5482" relative="1" as="geometry">
            <mxPoint x="-76" y="426" as="targetPoint" />
            <Array as="points" />
            <mxPoint x="194" y="426" as="sourcePoint" />
            <mxPoint as="offset" />
          </mxGeometry>
        </mxCell>
        <mxCell id="zkXxXNobY6UrV_OO1nqk-3" value="" style="endArrow=none;dashed=1;html=1;rounded=0;" parent="1" target="zkXxXNobY6UrV_OO1nqk-11" edge="1">
          <mxGeometry width="50" height="50" relative="1" as="geometry">
            <mxPoint x="56" y="814" as="sourcePoint" />
            <mxPoint x="56" y="168" as="targetPoint" />
          </mxGeometry>
        </mxCell>
        <mxCell id="zkXxXNobY6UrV_OO1nqk-4" value="工具前端" style="shape=umlLifeline;perimeter=lifelinePerimeter;whiteSpace=wrap;html=1;container=1;collapsible=0;recursiveResize=0;outlineConnect=0;rounded=1;shadow=0;comic=0;labelBackgroundColor=none;strokeWidth=1;fontFamily=Verdana;fontSize=12;align=center;" parent="1" vertex="1">
          <mxGeometry x="306" y="84" width="100" height="730" as="geometry" />
        </mxCell>
        <mxCell id="5pYDzcxZIdraRvupaK1v-18" value="渲染输入参数" style="html=1;verticalAlign=bottom;endArrow=open;dashed=1;endSize=8;labelBackgroundColor=none;fontFamily=Verdana;fontSize=12;edgeStyle=elbowEdgeStyle;elbow=vertical;" parent="zkXxXNobY6UrV_OO1nqk-4" edge="1">
          <mxGeometry x="-0.5471" relative="1" as="geometry">
            <mxPoint x="-236" y="469" as="targetPoint" />
            <Array as="points" />
            <mxPoint x="34" y="469" as="sourcePoint" />
            <mxPoint as="offset" />
          </mxGeometry>
        </mxCell>
        <mxCell id="0RdmLxTJzotYCwADJwB2-2" value="" style="html=1;points=[];perimeter=orthogonalPerimeter;rounded=0;shadow=0;comic=0;labelBackgroundColor=none;strokeWidth=1;fontFamily=Verdana;fontSize=12;align=center;" vertex="1" parent="zkXxXNobY6UrV_OO1nqk-4">
          <mxGeometry x="45" y="166" width="10" height="474" as="geometry" />
        </mxCell>
        <mxCell id="zkXxXNobY6UrV_OO1nqk-7" value="打开软件" style="html=1;verticalAlign=bottom;endArrow=block;entryX=0;entryY=0;labelBackgroundColor=none;fontFamily=Verdana;fontSize=12;edgeStyle=elbowEdgeStyle;elbow=vertical;" parent="1" source="zkXxXNobY6UrV_OO1nqk-12" target="zkXxXNobY6UrV_OO1nqk-13" edge="1">
          <mxGeometry relative="1" as="geometry">
            <mxPoint x="126" y="194" as="sourcePoint" />
            <mxPoint as="offset" />
          </mxGeometry>
        </mxCell>
        <mxCell id="zkXxXNobY6UrV_OO1nqk-8" value="打开工具" style="html=1;verticalAlign=bottom;endArrow=block;entryX=0;entryY=0;labelBackgroundColor=none;fontFamily=Verdana;fontSize=12;edgeStyle=elbowEdgeStyle;elbow=vertical;" parent="1" edge="1">
          <mxGeometry relative="1" as="geometry">
            <mxPoint x="201" y="249.99714285714288" as="sourcePoint" />
            <mxPoint x="351" y="250.1400000000002" as="targetPoint" />
          </mxGeometry>
        </mxCell>
        <mxCell id="zkXxXNobY6UrV_OO1nqk-9" value="Note" style="shape=note;whiteSpace=wrap;html=1;size=14;verticalAlign=top;align=left;spacingTop=-6;rounded=0;shadow=0;comic=0;labelBackgroundColor=none;strokeWidth=1;fontFamily=Verdana;fontSize=12" parent="1" vertex="1">
          <mxGeometry x="146" y="34" width="100" height="35" as="geometry" />
        </mxCell>
        <mxCell id="zkXxXNobY6UrV_OO1nqk-11" value="用户" style="shape=umlActor;verticalLabelPosition=bottom;verticalAlign=top;html=1;outlineConnect=0;" parent="1" vertex="1">
          <mxGeometry x="41" y="84" width="30" height="60" as="geometry" />
        </mxCell>
        <mxCell id="zkXxXNobY6UrV_OO1nqk-12" value="" style="html=1;points=[];perimeter=orthogonalPerimeter;rounded=0;shadow=0;comic=0;labelBackgroundColor=none;strokeWidth=1;fontFamily=Verdana;fontSize=12;align=center;" parent="1" vertex="1">
          <mxGeometry x="51" y="184" width="10" height="546" as="geometry" />
        </mxCell>
        <mxCell id="zkXxXNobY6UrV_OO1nqk-13" value="" style="html=1;points=[];perimeter=orthogonalPerimeter;rounded=0;shadow=0;comic=0;labelBackgroundColor=none;strokeWidth=1;fontFamily=Verdana;fontSize=12;align=center;" parent="1" vertex="1">
          <mxGeometry x="191" y="184" width="10" height="66" as="geometry" />
        </mxCell>
        <mxCell id="zkXxXNobY6UrV_OO1nqk-15" value="浏览" style="html=1;verticalAlign=bottom;endArrow=block;labelBackgroundColor=none;fontFamily=Verdana;fontSize=12;elbow=vertical;edgeStyle=orthogonalEdgeStyle;curved=1;exitX=0.96;exitY=0.262;exitPerimeter=0;exitDx=0;exitDy=0;" parent="1" edge="1">
          <mxGeometry x="-0.1622" relative="1" as="geometry">
            <mxPoint x="201" y="192" as="sourcePoint" />
            <mxPoint x="210" y="231" as="targetPoint" />
            <Array as="points">
              <mxPoint x="261" y="192" />
              <mxPoint x="261" y="231" />
            </Array>
            <mxPoint as="offset" />
          </mxGeometry>
        </mxCell>
        <mxCell id="zkXxXNobY6UrV_OO1nqk-38" value="输入参数" style="shape=umlLifeline;perimeter=lifelinePerimeter;whiteSpace=wrap;html=1;container=1;collapsible=0;recursiveResize=0;outlineConnect=0;rounded=1;shadow=0;comic=0;labelBackgroundColor=none;strokeWidth=1;fontFamily=Verdana;fontSize=12;align=center;" parent="1" vertex="1">
          <mxGeometry x="811" y="84" width="100" height="730" as="geometry" />
        </mxCell>
        <mxCell id="0RdmLxTJzotYCwADJwB2-5" value="" style="html=1;points=[];perimeter=orthogonalPerimeter;rounded=0;shadow=0;comic=0;labelBackgroundColor=none;strokeWidth=1;fontFamily=Verdana;fontSize=12;align=center;" vertex="1" parent="zkXxXNobY6UrV_OO1nqk-38">
          <mxGeometry x="45" y="325" width="10" height="315" as="geometry" />
        </mxCell>
        <mxCell id="5pYDzcxZIdraRvupaK1v-16" value="更新输出参数" style="html=1;verticalAlign=bottom;endArrow=block;labelBackgroundColor=none;fontFamily=Verdana;fontSize=12;edgeStyle=elbowEdgeStyle;elbow=vertical;" parent="zkXxXNobY6UrV_OO1nqk-38" edge="1">
          <mxGeometry x="-0.6868" relative="1" as="geometry">
            <mxPoint x="-111" y="565" as="sourcePoint" />
            <mxPoint x="200" y="565.17" as="targetPoint" />
            <mxPoint as="offset" />
          </mxGeometry>
        </mxCell>
        <mxCell id="zkXxXNobY6UrV_OO1nqk-41" value="工具后端" style="shape=umlLifeline;perimeter=lifelinePerimeter;whiteSpace=wrap;html=1;container=1;collapsible=0;recursiveResize=0;outlineConnect=0;rounded=1;shadow=0;comic=0;labelBackgroundColor=none;strokeWidth=1;fontFamily=Verdana;fontSize=12;align=center;" parent="1" vertex="1">
          <mxGeometry x="641" y="84" width="100" height="730" as="geometry" />
        </mxCell>
        <mxCell id="5pYDzcxZIdraRvupaK1v-3" value="初始化输入参数" style="html=1;verticalAlign=bottom;endArrow=block;entryX=0;entryY=0;labelBackgroundColor=none;fontFamily=Verdana;fontSize=12;edgeStyle=elbowEdgeStyle;elbow=vertical;" parent="zkXxXNobY6UrV_OO1nqk-41" edge="1">
          <mxGeometry x="-0.0033" relative="1" as="geometry">
            <mxPoint x="60" y="325" as="sourcePoint" />
            <mxPoint x="210" y="325.14285714285734" as="targetPoint" />
            <mxPoint as="offset" />
          </mxGeometry>
        </mxCell>
        <mxCell id="5pYDzcxZIdraRvupaK1v-12" value="返回输入/输出参数" style="html=1;verticalAlign=bottom;endArrow=open;dashed=1;endSize=8;labelBackgroundColor=none;fontFamily=Verdana;fontSize=12;edgeStyle=elbowEdgeStyle;elbow=vertical;" parent="zkXxXNobY6UrV_OO1nqk-41" edge="1">
          <mxGeometry x="-0.5482" relative="1" as="geometry">
            <mxPoint x="-270" y="407" as="targetPoint" />
            <Array as="points" />
            <mxPoint x="40" y="407" as="sourcePoint" />
            <mxPoint as="offset" />
          </mxGeometry>
        </mxCell>
        <mxCell id="0RdmLxTJzotYCwADJwB2-4" value="" style="html=1;points=[];perimeter=orthogonalPerimeter;rounded=0;shadow=0;comic=0;labelBackgroundColor=none;strokeWidth=1;fontFamily=Verdana;fontSize=12;align=center;" vertex="1" parent="zkXxXNobY6UrV_OO1nqk-41">
          <mxGeometry x="45" y="311" width="10" height="329" as="geometry" />
        </mxCell>
        <mxCell id="zkXxXNobY6UrV_OO1nqk-42" value="工具后端工厂" style="shape=umlLifeline;perimeter=lifelinePerimeter;whiteSpace=wrap;html=1;container=1;collapsible=0;recursiveResize=0;outlineConnect=0;rounded=1;shadow=0;comic=0;labelBackgroundColor=none;strokeWidth=1;fontFamily=Verdana;fontSize=12;align=center;" parent="1" vertex="1">
          <mxGeometry x="471" y="84" width="100" height="730" as="geometry" />
        </mxCell>
        <mxCell id="zkXxXNobY6UrV_OO1nqk-49" value="返回后端实例" style="html=1;verticalAlign=bottom;endArrow=open;dashed=1;endSize=8;labelBackgroundColor=none;fontFamily=Verdana;fontSize=12;edgeStyle=elbowEdgeStyle;elbow=vertical;" parent="zkXxXNobY6UrV_OO1nqk-42" edge="1">
          <mxGeometry x="-0.5482" relative="1" as="geometry">
            <mxPoint x="-100" y="362" as="targetPoint" />
            <Array as="points" />
            <mxPoint x="210" y="362" as="sourcePoint" />
            <mxPoint as="offset" />
          </mxGeometry>
        </mxCell>
        <mxCell id="5pYDzcxZIdraRvupaK1v-2" value="更新输入参数" style="html=1;verticalAlign=bottom;endArrow=block;labelBackgroundColor=none;fontFamily=Verdana;fontSize=12;edgeStyle=elbowEdgeStyle;elbow=vertical;" parent="zkXxXNobY6UrV_OO1nqk-42" edge="1">
          <mxGeometry x="-0.6868" relative="1" as="geometry">
            <mxPoint x="-101" y="469" as="sourcePoint" />
            <mxPoint x="210" y="469" as="targetPoint" />
            <mxPoint as="offset" />
          </mxGeometry>
        </mxCell>
        <mxCell id="5pYDzcxZIdraRvupaK1v-11" value="获取输入/输出参数" style="html=1;verticalAlign=bottom;endArrow=block;labelBackgroundColor=none;fontFamily=Verdana;fontSize=12;edgeStyle=elbowEdgeStyle;elbow=vertical;" parent="zkXxXNobY6UrV_OO1nqk-42" edge="1">
          <mxGeometry x="-0.5077" relative="1" as="geometry">
            <mxPoint x="-100" y="385" as="sourcePoint" />
            <mxPoint x="205" y="385" as="targetPoint" />
            <mxPoint as="offset" />
          </mxGeometry>
        </mxCell>
        <mxCell id="5pYDzcxZIdraRvupaK1v-14" value="更新输出参数" style="html=1;verticalAlign=bottom;endArrow=open;dashed=1;endSize=8;labelBackgroundColor=none;fontFamily=Verdana;fontSize=12;edgeStyle=elbowEdgeStyle;elbow=vertical;" parent="zkXxXNobY6UrV_OO1nqk-42" edge="1">
          <mxGeometry x="-0.5482" relative="1" as="geometry">
            <mxPoint x="-104" y="582" as="targetPoint" />
            <Array as="points" />
            <mxPoint x="206" y="582" as="sourcePoint" />
            <mxPoint as="offset" />
          </mxGeometry>
        </mxCell>
        <mxCell id="0RdmLxTJzotYCwADJwB2-3" value="" style="html=1;points=[];perimeter=orthogonalPerimeter;rounded=0;shadow=0;comic=0;labelBackgroundColor=none;strokeWidth=1;fontFamily=Verdana;fontSize=12;align=center;" vertex="1" parent="zkXxXNobY6UrV_OO1nqk-42">
          <mxGeometry x="45" y="281" width="10" height="30" as="geometry" />
        </mxCell>
        <mxCell id="zkXxXNobY6UrV_OO1nqk-43" value="初始化通用界面" style="html=1;verticalAlign=bottom;endArrow=block;labelBackgroundColor=none;fontFamily=Verdana;fontSize=12;elbow=vertical;edgeStyle=orthogonalEdgeStyle;curved=1;exitX=0.96;exitY=0.262;exitPerimeter=0;exitDx=0;exitDy=0;" parent="1" edge="1">
          <mxGeometry x="-0.0941" y="30" relative="1" as="geometry">
            <mxPoint x="361" y="257" as="sourcePoint" />
            <mxPoint x="370" y="296" as="targetPoint" />
            <Array as="points">
              <mxPoint x="421" y="257" />
              <mxPoint x="421" y="296" />
            </Array>
            <mxPoint as="offset" />
          </mxGeometry>
        </mxCell>
        <mxCell id="zkXxXNobY6UrV_OO1nqk-44" value="初始化特例界面" style="html=1;verticalAlign=bottom;endArrow=block;labelBackgroundColor=none;fontFamily=Verdana;fontSize=12;elbow=vertical;edgeStyle=orthogonalEdgeStyle;curved=1;exitX=0.96;exitY=0.262;exitPerimeter=0;exitDx=0;exitDy=0;" parent="1" edge="1">
          <mxGeometry x="-0.0941" y="30" relative="1" as="geometry">
            <mxPoint x="361" y="305" as="sourcePoint" />
            <mxPoint x="370" y="344" as="targetPoint" />
            <Array as="points">
              <mxPoint x="421" y="305" />
              <mxPoint x="421" y="344" />
            </Array>
            <mxPoint as="offset" />
          </mxGeometry>
        </mxCell>
        <mxCell id="zkXxXNobY6UrV_OO1nqk-48" value="创建后端实例" style="html=1;verticalAlign=bottom;endArrow=block;labelBackgroundColor=none;fontFamily=Verdana;fontSize=12;edgeStyle=elbowEdgeStyle;elbow=vertical;" parent="1" edge="1">
          <mxGeometry x="-0.0033" relative="1" as="geometry">
            <mxPoint x="530" y="395" as="sourcePoint" />
            <mxPoint x="680" y="395" as="targetPoint" />
            <mxPoint as="offset" />
          </mxGeometry>
        </mxCell>
        <mxCell id="5pYDzcxZIdraRvupaK1v-1" value="设置输入参数" style="html=1;verticalAlign=bottom;endArrow=block;labelBackgroundColor=none;fontFamily=Verdana;fontSize=12;edgeStyle=elbowEdgeStyle;elbow=vertical;" parent="1" edge="1">
          <mxGeometry x="-0.5862" relative="1" as="geometry">
            <mxPoint x="70" y="531" as="sourcePoint" />
            <mxPoint x="340" y="531" as="targetPoint" />
            <mxPoint as="offset" />
          </mxGeometry>
        </mxCell>
        <mxCell id="5pYDzcxZIdraRvupaK1v-4" value="输出参数" style="shape=umlLifeline;perimeter=lifelinePerimeter;whiteSpace=wrap;html=1;container=1;collapsible=0;recursiveResize=0;outlineConnect=0;rounded=1;shadow=0;comic=0;labelBackgroundColor=none;strokeWidth=1;fontFamily=Verdana;fontSize=12;align=center;" parent="1" vertex="1">
          <mxGeometry x="971" y="84" width="100" height="730" as="geometry" />
        </mxCell>
        <mxCell id="0RdmLxTJzotYCwADJwB2-6" value="" style="html=1;points=[];perimeter=orthogonalPerimeter;rounded=0;shadow=0;comic=0;labelBackgroundColor=none;strokeWidth=1;fontFamily=Verdana;fontSize=12;align=center;" vertex="1" parent="5pYDzcxZIdraRvupaK1v-4">
          <mxGeometry x="45" y="344" width="10" height="296" as="geometry" />
        </mxCell>
        <mxCell id="5pYDzcxZIdraRvupaK1v-5" value="初始化输出参数" style="html=1;verticalAlign=bottom;endArrow=block;labelBackgroundColor=none;fontFamily=Verdana;fontSize=12;edgeStyle=elbowEdgeStyle;elbow=vertical;" parent="1" edge="1">
          <mxGeometry x="-0.4667" relative="1" as="geometry">
            <mxPoint x="701" y="429" as="sourcePoint" />
            <mxPoint x="1010" y="429" as="targetPoint" />
            <mxPoint as="offset" />
            <Array as="points">
              <mxPoint x="981" y="429" />
            </Array>
          </mxGeometry>
        </mxCell>
        <mxCell id="5pYDzcxZIdraRvupaK1v-13" value="检查参数，计算结果" style="html=1;verticalAlign=bottom;endArrow=block;labelBackgroundColor=none;fontFamily=Verdana;fontSize=12;elbow=vertical;edgeStyle=orthogonalEdgeStyle;curved=1;exitX=0.96;exitY=0.262;exitPerimeter=0;exitDx=0;exitDy=0;entryX=1.087;entryY=0.225;entryDx=0;entryDy=0;entryPerimeter=0;" parent="1" edge="1">
          <mxGeometry x="-0.1464" y="39" relative="1" as="geometry">
            <mxPoint x="701" y="585" as="sourcePoint" />
            <mxPoint x="707.2700000000001" y="623.7" as="targetPoint" />
            <Array as="points">
              <mxPoint x="761.4" y="584.7" />
              <mxPoint x="761.4" y="623.7" />
            </Array>
            <mxPoint as="offset" />
          </mxGeometry>
        </mxCell>
        <mxCell id="5pYDzcxZIdraRvupaK1v-17" value="更新输入参数" style="html=1;verticalAlign=bottom;endArrow=block;labelBackgroundColor=none;fontFamily=Verdana;fontSize=12;edgeStyle=elbowEdgeStyle;elbow=vertical;" parent="1" edge="1">
          <mxGeometry x="-0.3329" relative="1" as="geometry">
            <mxPoint x="701" y="570" as="sourcePoint" />
            <mxPoint x="851" y="570" as="targetPoint" />
            <mxPoint as="offset" />
          </mxGeometry>
        </mxCell>
        <mxCell id="0RdmLxTJzotYCwADJwB2-1" value="屏蔽界面" style="html=1;verticalAlign=bottom;endArrow=open;dashed=1;endSize=8;labelBackgroundColor=none;fontFamily=Verdana;fontSize=12;edgeStyle=elbowEdgeStyle;elbow=vertical;" edge="1" parent="1">
          <mxGeometry x="-0.5482" relative="1" as="geometry">
            <mxPoint x="366" y="599" as="targetPoint" />
            <Array as="points" />
            <mxPoint x="676" y="599" as="sourcePoint" />
            <mxPoint as="offset" />
          </mxGeometry>
        </mxCell>
        <mxCell id="zkXxXNobY6UrV_OO1nqk-46" value="获取后端实例" style="html=1;verticalAlign=bottom;endArrow=block;labelBackgroundColor=none;fontFamily=Verdana;fontSize=12;edgeStyle=elbowEdgeStyle;elbow=vertical;" parent="1" edge="1">
          <mxGeometry relative="1" as="geometry">
            <mxPoint x="370" y="365" as="sourcePoint" />
            <mxPoint x="510" y="365" as="targetPoint" />
          </mxGeometry>
        </mxCell>
        <mxCell id="0RdmLxTJzotYCwADJwB2-9" value="恢复界面" style="html=1;verticalAlign=bottom;endArrow=open;dashed=1;endSize=8;labelBackgroundColor=none;fontFamily=Verdana;fontSize=12;edgeStyle=elbowEdgeStyle;elbow=vertical;" edge="1" parent="1">
          <mxGeometry x="-0.5482" relative="1" as="geometry">
            <mxPoint x="366" y="637" as="targetPoint" />
            <Array as="points" />
            <mxPoint x="676" y="637" as="sourcePoint" />
            <mxPoint as="offset" />
          </mxGeometry>
        </mxCell>
      </root>
    </mxGraphModel>
  </diagram>
</mxfile>
